<svg width="687" height="464" viewBox="0 0 687 464" fill="none" xmlns="http://www.w3.org/2000/svg">
<rect width="687" height="464" fill="white"/>
<path d="M669 160C669 187.338 646.838 209.5 619.5 209.5C592.162 209.5 570 187.338 570 160C570 132.662 592.162 110.5 619.5 110.5C646.838 110.5 669 132.662 669 160Z" fill="#C4C4C4"/>
<path d="M134 160C134 187.338 111.838 209.5 84.5 209.5C57.1619 209.5 35 187.338 35 160C35 132.662 57.1619 110.5 84.5 110.5C111.838 110.5 134 132.662 134 160Z" fill="#C4C4C4"/>
<rect x="206" y="99.5" width="107" height="46" fill="#C4C4C4"/>
<rect x="385" y="99.5" width="107" height="46" fill="#C4C4C4"/>
<rect x="206" y="175.5" width="107" height="46" fill="#C4C4C4"/>
<rect x="385" y="175.5" width="107" height="46" fill="#C4C4C4"/>
<path d="M226.188 121.4C226.188 122.369 225.965 123.148 225.52 123.738C225.074 124.324 224.477 124.617 223.727 124.617C222.926 124.617 222.307 124.334 221.869 123.768L221.816 124.5H220.82V115.5H221.904V118.857C222.342 118.314 222.945 118.043 223.715 118.043C224.484 118.043 225.088 118.334 225.525 118.916C225.967 119.498 226.188 120.295 226.188 121.307V121.4ZM225.104 121.277C225.104 120.539 224.961 119.969 224.676 119.566C224.391 119.164 223.98 118.963 223.445 118.963C222.73 118.963 222.217 119.295 221.904 119.959V122.701C222.236 123.365 222.754 123.697 223.457 123.697C223.977 123.697 224.381 123.496 224.67 123.094C224.959 122.691 225.104 122.086 225.104 121.277ZM228.736 124.5H227.652V115.5H228.736V124.5ZM230.189 121.271C230.189 120.65 230.311 120.092 230.553 119.596C230.799 119.1 231.139 118.717 231.572 118.447C232.01 118.178 232.508 118.043 233.066 118.043C233.93 118.043 234.627 118.342 235.158 118.939C235.693 119.537 235.961 120.332 235.961 121.324V121.4C235.961 122.018 235.842 122.572 235.604 123.064C235.369 123.553 235.031 123.934 234.59 124.207C234.152 124.48 233.648 124.617 233.078 124.617C232.219 124.617 231.521 124.318 230.986 123.721C230.455 123.123 230.189 122.332 230.189 121.348V121.271ZM231.279 121.4C231.279 122.104 231.441 122.668 231.766 123.094C232.094 123.52 232.531 123.732 233.078 123.732C233.629 123.732 234.066 123.518 234.391 123.088C234.715 122.654 234.877 122.049 234.877 121.271C234.877 120.576 234.711 120.014 234.379 119.584C234.051 119.15 233.613 118.934 233.066 118.934C232.531 118.934 232.1 119.146 231.771 119.572C231.443 119.998 231.279 120.607 231.279 121.4ZM239.863 123.732C240.25 123.732 240.588 123.615 240.877 123.381C241.166 123.146 241.326 122.854 241.357 122.502H242.383C242.363 122.865 242.238 123.211 242.008 123.539C241.777 123.867 241.469 124.129 241.082 124.324C240.699 124.52 240.293 124.617 239.863 124.617C239 124.617 238.312 124.33 237.801 123.756C237.293 123.178 237.039 122.389 237.039 121.389V121.207C237.039 120.59 237.152 120.041 237.379 119.561C237.605 119.08 237.93 118.707 238.352 118.441C238.777 118.176 239.279 118.043 239.857 118.043C240.568 118.043 241.158 118.256 241.627 118.682C242.1 119.107 242.352 119.66 242.383 120.34H241.357C241.326 119.93 241.17 119.594 240.889 119.332C240.611 119.066 240.268 118.934 239.857 118.934C239.307 118.934 238.879 119.133 238.574 119.531C238.273 119.926 238.123 120.498 238.123 121.248V121.453C238.123 122.184 238.273 122.746 238.574 123.141C238.875 123.535 239.305 123.732 239.863 123.732ZM245.371 121.564L244.691 122.273V124.5H243.607V115.5H244.691V120.943L245.271 120.246L247.246 118.16H248.564L246.098 120.809L248.852 124.5H247.58L245.371 121.564Z" fill="black"/>
<path d="M405.188 121.4C405.188 122.369 404.965 123.148 404.52 123.738C404.074 124.324 403.477 124.617 402.727 124.617C401.926 124.617 401.307 124.334 400.869 123.768L400.816 124.5H399.82V115.5H400.904V118.857C401.342 118.314 401.945 118.043 402.715 118.043C403.484 118.043 404.088 118.334 404.525 118.916C404.967 119.498 405.188 120.295 405.188 121.307V121.4ZM404.104 121.277C404.104 120.539 403.961 119.969 403.676 119.566C403.391 119.164 402.98 118.963 402.445 118.963C401.73 118.963 401.217 119.295 400.904 119.959V122.701C401.236 123.365 401.754 123.697 402.457 123.697C402.977 123.697 403.381 123.496 403.67 123.094C403.959 122.691 404.104 122.086 404.104 121.277ZM407.736 124.5H406.652V115.5H407.736V124.5ZM409.189 121.271C409.189 120.65 409.311 120.092 409.553 119.596C409.799 119.1 410.139 118.717 410.572 118.447C411.01 118.178 411.508 118.043 412.066 118.043C412.93 118.043 413.627 118.342 414.158 118.939C414.693 119.537 414.961 120.332 414.961 121.324V121.4C414.961 122.018 414.842 122.572 414.604 123.064C414.369 123.553 414.031 123.934 413.59 124.207C413.152 124.48 412.648 124.617 412.078 124.617C411.219 124.617 410.521 124.318 409.986 123.721C409.455 123.123 409.189 122.332 409.189 121.348V121.271ZM410.279 121.4C410.279 122.104 410.441 122.668 410.766 123.094C411.094 123.52 411.531 123.732 412.078 123.732C412.629 123.732 413.066 123.518 413.391 123.088C413.715 122.654 413.877 122.049 413.877 121.271C413.877 120.576 413.711 120.014 413.379 119.584C413.051 119.15 412.613 118.934 412.066 118.934C411.531 118.934 411.1 119.146 410.771 119.572C410.443 119.998 410.279 120.607 410.279 121.4ZM418.863 123.732C419.25 123.732 419.588 123.615 419.877 123.381C420.166 123.146 420.326 122.854 420.357 122.502H421.383C421.363 122.865 421.238 123.211 421.008 123.539C420.777 123.867 420.469 124.129 420.082 124.324C419.699 124.52 419.293 124.617 418.863 124.617C418 124.617 417.312 124.33 416.801 123.756C416.293 123.178 416.039 122.389 416.039 121.389V121.207C416.039 120.59 416.152 120.041 416.379 119.561C416.605 119.08 416.93 118.707 417.352 118.441C417.777 118.176 418.279 118.043 418.857 118.043C419.568 118.043 420.158 118.256 420.627 118.682C421.1 119.107 421.352 119.66 421.383 120.34H420.357C420.326 119.93 420.17 119.594 419.889 119.332C419.611 119.066 419.268 118.934 418.857 118.934C418.307 118.934 417.879 119.133 417.574 119.531C417.273 119.926 417.123 120.498 417.123 121.248V121.453C417.123 122.184 417.273 122.746 417.574 123.141C417.875 123.535 418.305 123.732 418.863 123.732ZM424.371 121.564L423.691 122.273V124.5H422.607V115.5H423.691V120.943L424.271 120.246L426.246 118.16H427.564L425.098 120.809L427.852 124.5H426.58L424.371 121.564Z" fill="black"/>
<path d="M595.734 163.373C595.312 163.869 594.693 164.117 593.877 164.117C593.201 164.117 592.686 163.922 592.33 163.531C591.979 163.137 591.801 162.555 591.797 161.785V157.66H592.881V161.756C592.881 162.717 593.271 163.197 594.053 163.197C594.881 163.197 595.432 162.889 595.705 162.271V157.66H596.789V164H595.758L595.734 163.373ZM602.133 162.318C602.133 162.025 602.021 161.799 601.799 161.639C601.58 161.475 601.195 161.334 600.645 161.217C600.098 161.1 599.662 160.959 599.338 160.795C599.018 160.631 598.779 160.436 598.623 160.209C598.471 159.982 598.395 159.713 598.395 159.4C598.395 158.881 598.613 158.441 599.051 158.082C599.492 157.723 600.055 157.543 600.738 157.543C601.457 157.543 602.039 157.729 602.484 158.1C602.934 158.471 603.158 158.945 603.158 159.523H602.068C602.068 159.227 601.941 158.971 601.688 158.756C601.438 158.541 601.121 158.434 600.738 158.434C600.344 158.434 600.035 158.52 599.812 158.691C599.59 158.863 599.479 159.088 599.479 159.365C599.479 159.627 599.582 159.824 599.789 159.957C599.996 160.09 600.369 160.217 600.908 160.338C601.451 160.459 601.891 160.604 602.227 160.771C602.562 160.939 602.811 161.143 602.971 161.381C603.135 161.615 603.217 161.902 603.217 162.242C603.217 162.809 602.99 163.264 602.537 163.607C602.084 163.947 601.496 164.117 600.773 164.117C600.266 164.117 599.816 164.027 599.426 163.848C599.035 163.668 598.729 163.418 598.506 163.098C598.287 162.773 598.178 162.424 598.178 162.049H599.262C599.281 162.412 599.426 162.701 599.695 162.916C599.969 163.127 600.328 163.232 600.773 163.232C601.184 163.232 601.512 163.15 601.758 162.986C602.008 162.818 602.133 162.596 602.133 162.318ZM607.26 164.117C606.4 164.117 605.701 163.836 605.162 163.273C604.623 162.707 604.354 161.951 604.354 161.006V160.807C604.354 160.178 604.473 159.617 604.711 159.125C604.953 158.629 605.289 158.242 605.719 157.965C606.152 157.684 606.621 157.543 607.125 157.543C607.949 157.543 608.59 157.814 609.047 158.357C609.504 158.9 609.732 159.678 609.732 160.689V161.141H605.438C605.453 161.766 605.635 162.271 605.982 162.658C606.334 163.041 606.779 163.232 607.318 163.232C607.701 163.232 608.025 163.154 608.291 162.998C608.557 162.842 608.789 162.635 608.988 162.377L609.65 162.893C609.119 163.709 608.322 164.117 607.26 164.117ZM607.125 158.434C606.688 158.434 606.32 158.594 606.023 158.914C605.727 159.23 605.543 159.676 605.473 160.25H608.648V160.168C608.617 159.617 608.469 159.191 608.203 158.891C607.938 158.586 607.578 158.434 607.125 158.434ZM611.525 164V158.498H610.523V157.66H611.525V157.01C611.525 156.33 611.707 155.805 612.07 155.434C612.434 155.062 612.947 154.877 613.611 154.877C613.861 154.877 614.109 154.91 614.355 154.977L614.297 155.855C614.113 155.82 613.918 155.803 613.711 155.803C613.359 155.803 613.088 155.906 612.896 156.113C612.705 156.316 612.609 156.609 612.609 156.992V157.66H613.963V158.498H612.609V164H611.525ZM619.078 163.373C618.656 163.869 618.037 164.117 617.221 164.117C616.545 164.117 616.029 163.922 615.674 163.531C615.322 163.137 615.145 162.555 615.141 161.785V157.66H616.225V161.756C616.225 162.717 616.615 163.197 617.396 163.197C618.225 163.197 618.775 162.889 619.049 162.271V157.66H620.133V164H619.102L619.078 163.373ZM622.963 164H621.879V155H622.963V164ZM627.416 160.777C627.416 159.805 627.646 159.023 628.107 158.434C628.568 157.84 629.172 157.543 629.918 157.543C630.66 157.543 631.248 157.797 631.682 158.305V155H632.766V164H631.77L631.717 163.32C631.283 163.852 630.68 164.117 629.906 164.117C629.172 164.117 628.572 163.816 628.107 163.215C627.646 162.613 627.416 161.828 627.416 160.859V160.777ZM628.5 160.9C628.5 161.619 628.648 162.182 628.945 162.588C629.242 162.994 629.652 163.197 630.176 163.197C630.863 163.197 631.365 162.889 631.682 162.271V159.359C631.357 158.762 630.859 158.463 630.188 158.463C629.656 158.463 629.242 158.668 628.945 159.078C628.648 159.488 628.5 160.096 628.5 160.9ZM638.367 164C638.305 163.875 638.254 163.652 638.215 163.332C637.711 163.855 637.109 164.117 636.41 164.117C635.785 164.117 635.271 163.941 634.869 163.59C634.471 163.234 634.271 162.785 634.271 162.242C634.271 161.582 634.521 161.07 635.021 160.707C635.525 160.34 636.232 160.156 637.143 160.156H638.197V159.658C638.197 159.279 638.084 158.979 637.857 158.756C637.631 158.529 637.297 158.416 636.855 158.416C636.469 158.416 636.145 158.514 635.883 158.709C635.621 158.904 635.49 159.141 635.49 159.418H634.4C634.4 159.102 634.512 158.797 634.734 158.504C634.961 158.207 635.266 157.973 635.648 157.801C636.035 157.629 636.459 157.543 636.92 157.543C637.65 157.543 638.223 157.727 638.637 158.094C639.051 158.457 639.266 158.959 639.281 159.6V162.518C639.281 163.1 639.355 163.562 639.504 163.906V164H638.367ZM636.568 163.174C636.908 163.174 637.23 163.086 637.535 162.91C637.84 162.734 638.061 162.506 638.197 162.225V160.924H637.348C636.02 160.924 635.355 161.312 635.355 162.09C635.355 162.43 635.469 162.695 635.695 162.887C635.922 163.078 636.213 163.174 636.568 163.174ZM642.451 156.125V157.66H643.635V158.498H642.451V162.43C642.451 162.684 642.504 162.875 642.609 163.004C642.715 163.129 642.895 163.191 643.148 163.191C643.273 163.191 643.445 163.168 643.664 163.121V164C643.379 164.078 643.102 164.117 642.832 164.117C642.348 164.117 641.982 163.971 641.736 163.678C641.49 163.385 641.367 162.969 641.367 162.43V158.498H640.213V157.66H641.367V156.125H642.451ZM648.82 164C648.758 163.875 648.707 163.652 648.668 163.332C648.164 163.855 647.562 164.117 646.863 164.117C646.238 164.117 645.725 163.941 645.322 163.59C644.924 163.234 644.725 162.785 644.725 162.242C644.725 161.582 644.975 161.07 645.475 160.707C645.979 160.34 646.686 160.156 647.596 160.156H648.65V159.658C648.65 159.279 648.537 158.979 648.311 158.756C648.084 158.529 647.75 158.416 647.309 158.416C646.922 158.416 646.598 158.514 646.336 158.709C646.074 158.904 645.943 159.141 645.943 159.418H644.854C644.854 159.102 644.965 158.797 645.188 158.504C645.414 158.207 645.719 157.973 646.102 157.801C646.488 157.629 646.912 157.543 647.373 157.543C648.104 157.543 648.676 157.727 649.09 158.094C649.504 158.457 649.719 158.959 649.734 159.6V162.518C649.734 163.1 649.809 163.562 649.957 163.906V164H648.82ZM647.021 163.174C647.361 163.174 647.684 163.086 647.988 162.91C648.293 162.734 648.514 162.506 648.65 162.225V160.924H647.801C646.473 160.924 645.809 161.312 645.809 162.09C645.809 162.43 645.922 162.695 646.148 162.887C646.375 163.078 646.666 163.174 647.021 163.174Z" fill="black"/>
<path d="M60.7344 163.373C60.3125 163.869 59.6934 164.117 58.877 164.117C58.2012 164.117 57.6855 163.922 57.3301 163.531C56.9785 163.137 56.8008 162.555 56.7969 161.785V157.66H57.8809V161.756C57.8809 162.717 58.2715 163.197 59.0527 163.197C59.8809 163.197 60.4316 162.889 60.7051 162.271V157.66H61.7891V164H60.7578L60.7344 163.373ZM67.1328 162.318C67.1328 162.025 67.0215 161.799 66.7988 161.639C66.5801 161.475 66.1953 161.334 65.6445 161.217C65.0977 161.1 64.6621 160.959 64.3379 160.795C64.0176 160.631 63.7793 160.436 63.623 160.209C63.4707 159.982 63.3945 159.713 63.3945 159.4C63.3945 158.881 63.6133 158.441 64.0508 158.082C64.4922 157.723 65.0547 157.543 65.7383 157.543C66.457 157.543 67.0391 157.729 67.4844 158.1C67.9336 158.471 68.1582 158.945 68.1582 159.523H67.0684C67.0684 159.227 66.9414 158.971 66.6875 158.756C66.4375 158.541 66.1211 158.434 65.7383 158.434C65.3438 158.434 65.0352 158.52 64.8125 158.691C64.5898 158.863 64.4785 159.088 64.4785 159.365C64.4785 159.627 64.582 159.824 64.7891 159.957C64.9961 160.09 65.3691 160.217 65.9082 160.338C66.4512 160.459 66.8906 160.604 67.2266 160.771C67.5625 160.939 67.8105 161.143 67.9707 161.381C68.1348 161.615 68.2168 161.902 68.2168 162.242C68.2168 162.809 67.9902 163.264 67.5371 163.607C67.084 163.947 66.4961 164.117 65.7734 164.117C65.2656 164.117 64.8164 164.027 64.4258 163.848C64.0352 163.668 63.7285 163.418 63.5059 163.098C63.2871 162.773 63.1777 162.424 63.1777 162.049H64.2617C64.2812 162.412 64.4258 162.701 64.6953 162.916C64.9688 163.127 65.3281 163.232 65.7734 163.232C66.1836 163.232 66.5117 163.15 66.7578 162.986C67.0078 162.818 67.1328 162.596 67.1328 162.318ZM72.2598 164.117C71.4004 164.117 70.7012 163.836 70.1621 163.273C69.623 162.707 69.3535 161.951 69.3535 161.006V160.807C69.3535 160.178 69.4727 159.617 69.7109 159.125C69.9531 158.629 70.2891 158.242 70.7188 157.965C71.1523 157.684 71.6211 157.543 72.125 157.543C72.9492 157.543 73.5898 157.814 74.0469 158.357C74.5039 158.9 74.7324 159.678 74.7324 160.689V161.141H70.4375C70.4531 161.766 70.6348 162.271 70.9824 162.658C71.334 163.041 71.7793 163.232 72.3184 163.232C72.7012 163.232 73.0254 163.154 73.291 162.998C73.5566 162.842 73.7891 162.635 73.9883 162.377L74.6504 162.893C74.1191 163.709 73.3223 164.117 72.2598 164.117ZM72.125 158.434C71.6875 158.434 71.3203 158.594 71.0234 158.914C70.7266 159.23 70.543 159.676 70.4727 160.25H73.6484V160.168C73.6172 159.617 73.4688 159.191 73.2031 158.891C72.9375 158.586 72.5781 158.434 72.125 158.434ZM76.5254 164V158.498H75.5234V157.66H76.5254V157.01C76.5254 156.33 76.707 155.805 77.0703 155.434C77.4336 155.062 77.9473 154.877 78.6113 154.877C78.8613 154.877 79.1094 154.91 79.3555 154.977L79.2969 155.855C79.1133 155.82 78.918 155.803 78.7109 155.803C78.3594 155.803 78.0879 155.906 77.8965 156.113C77.7051 156.316 77.6094 156.609 77.6094 156.992V157.66H78.9629V158.498H77.6094V164H76.5254ZM84.0781 163.373C83.6562 163.869 83.0371 164.117 82.2207 164.117C81.5449 164.117 81.0293 163.922 80.6738 163.531C80.3223 163.137 80.1445 162.555 80.1406 161.785V157.66H81.2246V161.756C81.2246 162.717 81.6152 163.197 82.3965 163.197C83.2246 163.197 83.7754 162.889 84.0488 162.271V157.66H85.1328V164H84.1016L84.0781 163.373ZM87.9629 164H86.8789V155H87.9629V164ZM92.416 160.777C92.416 159.805 92.6465 159.023 93.1074 158.434C93.5684 157.84 94.1719 157.543 94.918 157.543C95.6602 157.543 96.248 157.797 96.6816 158.305V155H97.7656V164H96.7695L96.7168 163.32C96.2832 163.852 95.6797 164.117 94.9062 164.117C94.1719 164.117 93.5723 163.816 93.1074 163.215C92.6465 162.613 92.416 161.828 92.416 160.859V160.777ZM93.5 160.9C93.5 161.619 93.6484 162.182 93.9453 162.588C94.2422 162.994 94.6523 163.197 95.1758 163.197C95.8633 163.197 96.3652 162.889 96.6816 162.271V159.359C96.3574 158.762 95.8594 158.463 95.1875 158.463C94.6562 158.463 94.2422 158.668 93.9453 159.078C93.6484 159.488 93.5 160.096 93.5 160.9ZM103.367 164C103.305 163.875 103.254 163.652 103.215 163.332C102.711 163.855 102.109 164.117 101.41 164.117C100.785 164.117 100.271 163.941 99.8691 163.59C99.4707 163.234 99.2715 162.785 99.2715 162.242C99.2715 161.582 99.5215 161.07 100.021 160.707C100.525 160.34 101.232 160.156 102.143 160.156H103.197V159.658C103.197 159.279 103.084 158.979 102.857 158.756C102.631 158.529 102.297 158.416 101.855 158.416C101.469 158.416 101.145 158.514 100.883 158.709C100.621 158.904 100.49 159.141 100.49 159.418H99.4004C99.4004 159.102 99.5117 158.797 99.7344 158.504C99.9609 158.207 100.266 157.973 100.648 157.801C101.035 157.629 101.459 157.543 101.92 157.543C102.65 157.543 103.223 157.727 103.637 158.094C104.051 158.457 104.266 158.959 104.281 159.6V162.518C104.281 163.1 104.355 163.562 104.504 163.906V164H103.367ZM101.568 163.174C101.908 163.174 102.23 163.086 102.535 162.91C102.84 162.734 103.061 162.506 103.197 162.225V160.924H102.348C101.02 160.924 100.355 161.312 100.355 162.09C100.355 162.43 100.469 162.695 100.695 162.887C100.922 163.078 101.213 163.174 101.568 163.174ZM107.451 156.125V157.66H108.635V158.498H107.451V162.43C107.451 162.684 107.504 162.875 107.609 163.004C107.715 163.129 107.895 163.191 108.148 163.191C108.273 163.191 108.445 163.168 108.664 163.121V164C108.379 164.078 108.102 164.117 107.832 164.117C107.348 164.117 106.982 163.971 106.736 163.678C106.49 163.385 106.367 162.969 106.367 162.43V158.498H105.213V157.66H106.367V156.125H107.451ZM113.82 164C113.758 163.875 113.707 163.652 113.668 163.332C113.164 163.855 112.562 164.117 111.863 164.117C111.238 164.117 110.725 163.941 110.322 163.59C109.924 163.234 109.725 162.785 109.725 162.242C109.725 161.582 109.975 161.07 110.475 160.707C110.979 160.34 111.686 160.156 112.596 160.156H113.65V159.658C113.65 159.279 113.537 158.979 113.311 158.756C113.084 158.529 112.75 158.416 112.309 158.416C111.922 158.416 111.598 158.514 111.336 158.709C111.074 158.904 110.943 159.141 110.943 159.418H109.854C109.854 159.102 109.965 158.797 110.188 158.504C110.414 158.207 110.719 157.973 111.102 157.801C111.488 157.629 111.912 157.543 112.373 157.543C113.104 157.543 113.676 157.727 114.09 158.094C114.504 158.457 114.719 158.959 114.734 159.6V162.518C114.734 163.1 114.809 163.562 114.957 163.906V164H113.82ZM112.021 163.174C112.361 163.174 112.684 163.086 112.988 162.91C113.293 162.734 113.514 162.506 113.65 162.225V160.924H112.801C111.473 160.924 110.809 161.312 110.809 162.09C110.809 162.43 110.922 162.695 111.148 162.887C111.375 163.078 111.666 163.174 112.021 163.174Z" fill="black"/>
<path d="M226.188 197.4C226.188 198.369 225.965 199.148 225.52 199.738C225.074 200.324 224.477 200.617 223.727 200.617C222.926 200.617 222.307 200.334 221.869 199.768L221.816 200.5H220.82V191.5H221.904V194.857C222.342 194.314 222.945 194.043 223.715 194.043C224.484 194.043 225.088 194.334 225.525 194.916C225.967 195.498 226.188 196.295 226.188 197.307V197.4ZM225.104 197.277C225.104 196.539 224.961 195.969 224.676 195.566C224.391 195.164 223.98 194.963 223.445 194.963C222.73 194.963 222.217 195.295 221.904 195.959V198.701C222.236 199.365 222.754 199.697 223.457 199.697C223.977 199.697 224.381 199.496 224.67 199.094C224.959 198.691 225.104 198.086 225.104 197.277ZM228.736 200.5H227.652V191.5H228.736V200.5ZM230.189 197.271C230.189 196.65 230.311 196.092 230.553 195.596C230.799 195.1 231.139 194.717 231.572 194.447C232.01 194.178 232.508 194.043 233.066 194.043C233.93 194.043 234.627 194.342 235.158 194.939C235.693 195.537 235.961 196.332 235.961 197.324V197.4C235.961 198.018 235.842 198.572 235.604 199.064C235.369 199.553 235.031 199.934 234.59 200.207C234.152 200.48 233.648 200.617 233.078 200.617C232.219 200.617 231.521 200.318 230.986 199.721C230.455 199.123 230.189 198.332 230.189 197.348V197.271ZM231.279 197.4C231.279 198.104 231.441 198.668 231.766 199.094C232.094 199.52 232.531 199.732 233.078 199.732C233.629 199.732 234.066 199.518 234.391 199.088C234.715 198.654 234.877 198.049 234.877 197.271C234.877 196.576 234.711 196.014 234.379 195.584C234.051 195.15 233.613 194.934 233.066 194.934C232.531 194.934 232.1 195.146 231.771 195.572C231.443 195.998 231.279 196.607 231.279 197.4ZM239.863 199.732C240.25 199.732 240.588 199.615 240.877 199.381C241.166 199.146 241.326 198.854 241.357 198.502H242.383C242.363 198.865 242.238 199.211 242.008 199.539C241.777 199.867 241.469 200.129 241.082 200.324C240.699 200.52 240.293 200.617 239.863 200.617C239 200.617 238.312 200.33 237.801 199.756C237.293 199.178 237.039 198.389 237.039 197.389V197.207C237.039 196.59 237.152 196.041 237.379 195.561C237.605 195.08 237.93 194.707 238.352 194.441C238.777 194.176 239.279 194.043 239.857 194.043C240.568 194.043 241.158 194.256 241.627 194.682C242.1 195.107 242.352 195.66 242.383 196.34H241.357C241.326 195.93 241.17 195.594 240.889 195.332C240.611 195.066 240.268 194.934 239.857 194.934C239.307 194.934 238.879 195.133 238.574 195.531C238.273 195.926 238.123 196.498 238.123 197.248V197.453C238.123 198.184 238.273 198.746 238.574 199.141C238.875 199.535 239.305 199.732 239.863 199.732ZM245.371 197.564L244.691 198.273V200.5H243.607V191.5H244.691V196.943L245.271 196.246L247.246 194.16H248.564L246.098 196.809L248.852 200.5H247.58L245.371 197.564Z" fill="black"/>
<path d="M405.188 197.4C405.188 198.369 404.965 199.148 404.52 199.738C404.074 200.324 403.477 200.617 402.727 200.617C401.926 200.617 401.307 200.334 400.869 199.768L400.816 200.5H399.82V191.5H400.904V194.857C401.342 194.314 401.945 194.043 402.715 194.043C403.484 194.043 404.088 194.334 404.525 194.916C404.967 195.498 405.188 196.295 405.188 197.307V197.4ZM404.104 197.277C404.104 196.539 403.961 195.969 403.676 195.566C403.391 195.164 402.98 194.963 402.445 194.963C401.73 194.963 401.217 195.295 400.904 195.959V198.701C401.236 199.365 401.754 199.697 402.457 199.697C402.977 199.697 403.381 199.496 403.67 199.094C403.959 198.691 404.104 198.086 404.104 197.277ZM407.736 200.5H406.652V191.5H407.736V200.5ZM409.189 197.271C409.189 196.65 409.311 196.092 409.553 195.596C409.799 195.1 410.139 194.717 410.572 194.447C411.01 194.178 411.508 194.043 412.066 194.043C412.93 194.043 413.627 194.342 414.158 194.939C414.693 195.537 414.961 196.332 414.961 197.324V197.4C414.961 198.018 414.842 198.572 414.604 199.064C414.369 199.553 414.031 199.934 413.59 200.207C413.152 200.48 412.648 200.617 412.078 200.617C411.219 200.617 410.521 200.318 409.986 199.721C409.455 199.123 409.189 198.332 409.189 197.348V197.271ZM410.279 197.4C410.279 198.104 410.441 198.668 410.766 199.094C411.094 199.52 411.531 199.732 412.078 199.732C412.629 199.732 413.066 199.518 413.391 199.088C413.715 198.654 413.877 198.049 413.877 197.271C413.877 196.576 413.711 196.014 413.379 195.584C413.051 195.15 412.613 194.934 412.066 194.934C411.531 194.934 411.1 195.146 410.771 195.572C410.443 195.998 410.279 196.607 410.279 197.4ZM418.863 199.732C419.25 199.732 419.588 199.615 419.877 199.381C420.166 199.146 420.326 198.854 420.357 198.502H421.383C421.363 198.865 421.238 199.211 421.008 199.539C420.777 199.867 420.469 200.129 420.082 200.324C419.699 200.52 419.293 200.617 418.863 200.617C418 200.617 417.312 200.33 416.801 199.756C416.293 199.178 416.039 198.389 416.039 197.389V197.207C416.039 196.59 416.152 196.041 416.379 195.561C416.605 195.08 416.93 194.707 417.352 194.441C417.777 194.176 418.279 194.043 418.857 194.043C419.568 194.043 420.158 194.256 420.627 194.682C421.1 195.107 421.352 195.66 421.383 196.34H420.357C420.326 195.93 420.17 195.594 419.889 195.332C419.611 195.066 419.268 194.934 418.857 194.934C418.307 194.934 417.879 195.133 417.574 195.531C417.273 195.926 417.123 196.498 417.123 197.248V197.453C417.123 198.184 417.273 198.746 417.574 199.141C417.875 199.535 418.305 199.732 418.863 199.732ZM424.371 197.564L423.691 198.273V200.5H422.607V191.5H423.691V196.943L424.271 196.246L426.246 194.16H427.564L425.098 196.809L427.852 200.5H426.58L424.371 197.564Z" fill="black"/>
<path d="M386.061 121.561C386.646 120.975 386.646 120.025 386.061 119.439L376.515 109.893C375.929 109.308 374.979 109.308 374.393 109.893C373.808 110.479 373.808 111.429 374.393 112.015L382.879 120.5L374.393 128.985C373.808 129.571 373.808 130.521 374.393 131.107C374.979 131.692 375.929 131.692 376.515 131.107L386.061 121.561ZM310 122H385V119H310V122Z" fill="black"/>
<path d="M571.691 146.831C572.426 146.449 572.713 145.544 572.331 144.809L566.11 132.828C565.728 132.092 564.823 131.806 564.088 132.188C563.353 132.569 563.066 133.475 563.448 134.21L568.978 144.86L558.328 150.39C557.592 150.772 557.306 151.677 557.688 152.412C558.069 153.147 558.975 153.434 559.71 153.052L571.691 146.831ZM491.547 121.93L570.547 146.93L571.453 144.07L492.453 119.07L491.547 121.93Z" fill="black"/>
<path d="M207.337 123.68C207.713 122.941 207.418 122.038 206.68 121.663L194.645 115.547C193.906 115.171 193.003 115.466 192.628 116.204C192.252 116.943 192.547 117.846 193.285 118.221L203.983 123.658L198.547 134.355C198.171 135.094 198.466 135.997 199.204 136.372C199.943 136.748 200.846 136.453 201.221 135.715L207.337 123.68ZM137.465 146.926L206.465 124.426L205.535 121.574L136.535 144.074L137.465 146.926Z" fill="black"/>
<path d="M572.298 176.253C572.713 175.536 572.469 174.618 571.753 174.202L560.075 167.429C559.358 167.014 558.44 167.258 558.025 167.974C557.609 168.691 557.853 169.609 558.569 170.024L568.95 176.045L562.929 186.425C562.514 187.142 562.758 188.06 563.474 188.475C564.191 188.891 565.109 188.647 565.524 187.93L572.298 176.253ZM492.385 197.95L571.385 176.95L570.615 174.05L491.615 195.05L492.385 197.95Z" fill="black"/>
<path d="M206.688 199.833C207.424 199.453 207.713 198.549 207.333 197.812L201.145 185.814C200.765 185.078 199.86 184.789 199.124 185.169C198.388 185.549 198.099 186.453 198.478 187.19L203.979 197.854L193.314 203.355C192.578 203.735 192.289 204.64 192.669 205.376C193.049 206.112 193.953 206.401 194.69 206.022L206.688 199.833ZM133.544 176.929L205.544 199.929L206.456 197.071L134.456 174.071L133.544 176.929Z" fill="black"/>
<path d="M386.061 201.561C386.646 200.975 386.646 200.025 386.061 199.439L376.515 189.893C375.929 189.308 374.979 189.308 374.393 189.893C373.808 190.479 373.808 191.429 374.393 192.015L382.879 200.5L374.393 208.985C373.808 209.571 373.808 210.521 374.393 211.107C374.979 211.692 375.929 211.692 376.515 211.107L386.061 201.561ZM310 202H385V199H310V202Z" fill="black"/>
</svg>
